<svg id="Capa_1" enable-background="new 0 0 512 512" height="512" viewBox="0 0 512 512" width="512" xmlns="http://www.w3.org/2000/svg"><g><g><g><path d="m14.243 377.339 47.322 7.855v-324.38l-47.322 7.855c-8.218 1.364-14.243 8.472-14.243 16.801v275.067c0 8.331 6.025 15.438 14.243 16.802z" fill="#ffc751"/><path d="m61.56 60.81v324.38l-47.32-7.85c-8.21-1.36-14.24-8.47-14.24-16.8v-203.05c18.45-11.14 30.78-31.38 30.78-54.5 0-13.05-3.93-25.19-10.67-35.29z" fill="#ffaf40"/><path d="m0 179.039v181.499c0 8.33 6.025 15.438 14.243 16.802l47.322 7.855v-206.156z" fill="#a1412b"/><path d="m40.364 331.769v-83.582c0-11.146-9.036-20.182-20.182-20.182-11.146 0-20.182 9.036-20.182 20.182v83.582c0 11.146 9.036 20.182 20.182 20.182 11.146 0 20.182-9.036 20.182-20.182z" fill="#b55434"/><path d="m40.364 299.915v-29.22c0-11.146-9.036-20.182-20.182-20.182-11.146.001-20.182 9.036-20.182 20.183v29.22c0 11.146 9.036 20.182 20.182 20.182 11.146-.001 20.182-9.037 20.182-20.183z" fill="#db765a"/><path d="m489.291 207.971h-176.071c-12.542 0-22.709-10.167-22.709-22.709v-117.004c0-12.542 10.167-22.709 22.709-22.709h176.071c12.542.001 22.709 10.168 22.709 22.709v117.004c0 12.542-10.167 22.709-22.709 22.709z" fill="#e3f0ff"/><path d="m442.666 62.944c0-9.607-7.788-17.395-17.395-17.395h-80.62c-9.607 0-17.395 7.788-17.395 17.395 0 9.607 7.788 17.395 17.395 17.395h80.62c9.607 0 17.395-7.788 17.395-17.395z" fill="#f5faff"/><path d="m386.593 45.55h-14.983c-9.607 0-17.395 7.788-17.395 17.395 0 9.607 7.788 17.395 17.395 17.395h14.983c9.607 0 17.395-7.788 17.395-17.395 0-9.607-7.788-17.395-17.395-17.395z" fill="#fff"/><path d="m512 68.26v117c0 12.54-10.17 22.71-22.71 22.71h-176.07c-12.54 0-22.71-10.17-22.71-22.71v-14.74c17.1 7.93 36.16 12.35 56.25 12.35 73.99 0 133.98-59.99 133.98-133.99 0-1.11-.01-2.22-.04-3.33h8.59c12.54 0 22.71 10.17 22.71 22.71z" fill="#cbe1ff"/><path d="m512 107.99v77.27c0 12.54-10.17 22.71-22.71 22.71h-51.89c40-17.42 69.16-55.04 74.6-99.98z" fill="#a9cffc"/><path d="m217.289 97.415h96.811c6.271 0 11.354-5.083 11.354-11.354v-11.444c0-6.271-5.083-11.354-11.354-11.354h-96.812v34.152z" fill="#b55434"/><path d="m289.603 63.262h-11.511c-9.431 0-17.076 7.645-17.076 17.076 0 9.431 7.645 17.076 17.076 17.076h11.511c9.431 0 17.076-7.645 17.076-17.076 0-9.43-7.645-17.076-17.076-17.076z" fill="#db765a"/><path d="m241.89 26.74v458.52c0 12.54-10.16 22.71-22.7 22.71h-142.77c-12.54 0-22.71-10.17-22.71-22.71v-458.52c0-12.54 10.17-22.71 22.71-22.71h142.77c12.54 0 22.7 10.17 22.7 22.71z" fill="#e3f0ff"/><g><path d="m53.71 308.524v77.739c0 12.928 10.48 23.408 23.408 23.408 12.928 0 23.408-10.48 23.408-23.408v-77.739c0-12.928-10.48-23.408-23.408-23.408-12.928 0-23.408 10.48-23.408 23.408z" fill="#f5faff"/><path d="m100.525 349.141v-17.188c0-12.928-10.48-23.408-23.408-23.408-12.928 0-23.408 10.48-23.408 23.408v17.188c0 12.928 10.48 23.408 23.408 23.408 12.928 0 23.408-10.48 23.408-23.408z" fill="#fff"/></g><path d="m241.89 98.24v155.2c-22.36 27.09-56.21 44.36-94.09 44.36-37.87 0-71.72-17.27-94.09-44.36v-155.2c22.37-27.1 56.22-44.37 94.09-44.37 37.88 0 71.73 17.27 94.09 44.37z" fill="#cbe1ff"/><path d="m241.89 26.74v458.52c0 12.54-10.16 22.71-22.7 22.71h-142.77c-12.54 0-22.71-10.17-22.71-22.71v-52.84c104.68-31.6 180.9-128.78 180.9-243.77 0-72.67-30.44-138.23-79.27-184.62h63.85c12.54 0 22.7 10.17 22.7 22.71z" fill="#cbe1ff"/><path d="m241.89 318.04v167.22c0 12.54-10.16 22.71-22.7 22.71h-129.59c75.85-32.32 133.48-107.45 152.29-189.93z" fill="#a9cffc"/><path d="m53.712 451.623v33.639c0 12.542 10.167 22.709 22.709 22.709h142.765c12.542 0 22.709-10.167 22.709-22.709v-33.639z" fill="#b55434"/><path d="m177.18 451.623h-86.625c-10.906 0-19.748 8.841-19.748 19.748 0 10.906 8.841 19.748 19.748 19.748h86.625c10.906 0 19.748-8.841 19.748-19.748 0-10.907-8.842-19.748-19.748-19.748z" fill="#db765a"/><path d="m135.14 451.623h-17.041c-10.906 0-19.748 8.841-19.748 19.748 0 10.906 8.841 19.748 19.748 19.748h17.041c10.906 0 19.748-8.841 19.748-19.748 0-10.907-8.842-19.748-19.748-19.748z" fill="#ef927d"/><g><circle cx="147.803" cy="156.16" fill="#7cbaf7" r="121.961"/><circle cx="147.803" cy="156.16" fill="#57eae6" r="86.239"/></g></g><path d="m241.89 371.67v34.84h-69.06c-6.18 0-11.18-5-11.18-11.18v-12.48c0-6.17 5-11.18 11.18-11.18z" fill="#ffc751"/><path d="m484.602 182.868h-36.747c-5.774 0-10.455-4.681-10.455-10.455v-1.824c0-5.774 4.681-10.455 10.455-10.455h36.747c5.774 0 10.455 4.681 10.455 10.455v1.824c0 5.774-4.681 10.455-10.455 10.455z" fill="#7cbaf7"/></g><path d="m98.599 198.38c5.231-5.231 6.383-13.179 3.133-19.824-3.311-6.768-5.172-14.368-5.172-22.397 0-22.888 15.093-42.314 35.847-48.865 7.229-2.282 12.092-9.059 12.092-16.64 0-11.816-11.478-20.275-22.744-16.712-34.898 11.04-60.195 43.667-60.195 82.218 0 13.476 3.095 26.226 8.61 37.583 5.295 10.904 19.857 13.209 28.429 4.637z" fill="#a5f9f3"/><path d="m99.396 139.363c2.935-8.428 8.013-15.86 14.579-21.641 6.432-5.664 7.961-15.072 3.42-22.34-.062-.099-.124-.199-.186-.298-5.676-9.084-18.122-10.86-26.183-3.806-11.097 9.711-19.68 22.219-24.647 36.428-3.968 11.349 4.431 23.226 16.453 23.226 7.402 0 14.131-4.579 16.564-11.569z" fill="#defffc"/><path d="m234.04 156.16c0 47.63-38.61 86.24-86.24 86.24-22.27 0-42.56-8.43-57.86-22.29 10.02 4.39 21.1 6.82 32.74 6.82 45.19 0 81.83-36.64 81.83-81.83 0-33.36-19.95-62.05-48.57-74.79 43.81 4.09 78.1 40.96 78.1 85.85z" fill="#3cd3d3"/><g><path d="m108.543 232.945c-28.466-14.577-47.768-44.502-46.958-78.867 1.085-46.029 38.8-83.428 84.836-84.148 19.102-.299 36.803 5.619 51.225 15.856 7.158 5.081 16.904 4.376 23.111-1.832 7.787-7.787 6.771-20.738-2.193-27.136-19.473-13.897-43.204-22.212-68.859-22.605-67.165-1.026-122.966 53.131-123.854 120.297-.637 48.178 26.669 90.036 66.733 110.414 10.332 5.255 22.846-.735 25.287-12.066.025-.117.05-.234.076-.351 1.701-7.904-2.208-15.877-9.404-19.562z" fill="#a9cffc"/></g><g><path d="m25.851 154.51c-.058 4.381.117 8.709.512 12.973 1.15 12.419 14.382 19.827 25.529 14.233l.368-.185c6.56-3.292 10.3-10.288 9.646-17.599-.29-3.236-.4-6.525-.322-9.854.917-38.92 28.028-71.652 64.21-81.271 7.844-2.085 13.388-9.06 13.388-17.177v-.301c0-11.561-10.916-20.099-22.099-17.167-51.711 13.56-90.493 60.445-91.232 116.348z" fill="#cbe1ff"/></g><path d="m241.89 371.67v34.84h-36.86c7.02-11.16 13.29-22.81 18.73-34.84z" fill="#ffaf40"/><g fill="#229bff"><circle cx="316.401" cy="182.868" r="7.033"/><circle cx="78.398" cy="423.038" r="7.033"/></g></g></svg>