<?xml version="1.0" encoding="iso-8859-1"?>
<!-- Generator: Adobe Illustrator 19.0.0, SVG Export Plug-In . SVG Version: 6.00 Build 0)  -->
<svg version="1.1" id="Capa_1" xmlns="http://www.w3.org/2000/svg" xmlns:xlink="http://www.w3.org/1999/xlink" x="0px" y="0px"
	 viewBox="0 0 512 512" style="enable-background:new 0 0 512 512;" xml:space="preserve">
<g>
	<path style="fill:#32CD32;" d="M166.428,67h179.145c8.284,0,15-6.732,15-15s-6.716-15-15-15H166.428c-8.284,0-15,6.732-15,15
		S158.144,67,166.428,67z"/>
	<path style="fill:#32CD32;" d="M345.572,105H166.428c-8.284,0-15,6.732-15,15s6.716,15,15,15h179.145c8.284,0,15-6.732,15-15
		S353.856,105,345.572,105z"/>
	<path style="fill:#32CD32;" d="M345.572,173H166.428c-8.284,0-15,6.732-15,15s6.716,15,15,15h179.145c8.284,0,15-6.732,15-15
		S353.856,173,345.572,173z"/>
	<path style="fill:#32CD32;" d="M345.572,241H166.428c-8.284,0-15,6.732-15,15s6.716,15,15,15h179.145c8.284,0,15-6.732,15-15
		S353.856,241,345.572,241z"/>
	<path style="fill:#32CD32;" d="M345.572,309H166.428c-8.284,0-15,6.732-15,15s6.716,15,15,15h179.145c8.284,0,15-6.732,15-15
		S353.856,309,345.572,309z"/>
	<path style="fill:#32CD32;" d="M345.572,377H166.428c-8.284,0-15,6.732-15,15s6.716,15,15,15h179.145c8.284,0,15-6.732,15-15
		S353.856,377,345.572,377z"/>
	<path style="fill:#32CD32;" d="M345.572,445H166.428c-8.284,0-15,6.732-15,15s6.716,15,15,15h179.145c8.284,0,15-6.732,15-15
		S353.856,445,345.572,445z"/>
</g>
<g>
	<path style="fill:#32CD32;" d="M256,37h-89.572c-8.284,0-15,6.732-15,15s6.716,15,15,15H256V37z"/>
	<path style="fill:#32CD32;" d="M256,105h-89.572c-8.284,0-15,6.732-15,15s6.716,15,15,15H256V105z"/>
	<path style="fill:#32CD32;" d="M256,173h-89.572c-8.284,0-15,6.732-15,15s6.716,15,15,15H256V173z"/>
	<path style="fill:#32CD32;" d="M256,241h-89.572c-8.284,0-15,6.732-15,15s6.716,15,15,15H256V241z"/>
	<path style="fill:#32CD32;" d="M256,309h-89.572c-8.284,0-15,6.732-15,15s6.716,15,15,15H256V309z"/>
	<path style="fill:#32CD32;" d="M256,377h-89.572c-8.284,0-15,6.732-15,15s6.716,15,15,15H256V377z"/>
	<path style="fill:#32CD32;" d="M256,445h-89.572c-8.284,0-15,6.732-15,15s6.716,15,15,15H256V445z"/>
</g>
<g>
	<path style="fill:#32CD32;" d="M129.846,512h-3.977c-18.274,0-33.087-14.814-33.087-33.087V33.087
		C92.782,14.814,107.595,0,125.869,0h3.977c18.274,0,33.087,14.814,33.087,33.087v445.826C162.933,497.186,148.119,512,129.846,512z
		"/>
	<path style="fill:#32CD32;" d="M386.131,512h-3.977c-18.274,0-33.087-14.814-33.087-33.087V33.087
		C349.067,14.814,363.881,0,382.154,0h3.977c18.274,0,33.087,14.814,33.087,33.087v445.826C419.218,497.186,404.405,512,386.131,512
		z"/>
</g>
<g>
</g>
<g>
</g>
<g>
</g>
<g>
</g>
<g>
</g>
<g>
</g>
<g>
</g>
<g>
</g>
<g>
</g>
<g>
</g>
<g>
</g>
<g>
</g>
<g>
</g>
<g>
</g>
<g>
</g>
</svg>
